<?xml version="1.0" encoding="utf-8"?>
<svg xmlns="http://www.w3.org/2000/svg" xmlns:xlink="http://www.w3.org/1999/xlink">
<!-- <svg style="display: none;" xmlns="http://www.w3.org/2000/svg"> -->

    <symbol id="facebook" width="16" height="30" viewBox="0 0 16 30" >
        <path d="M10.1124 29.9999V16.3154H14.7057L15.3934 10.9824H10.1124V7.57736C10.1124 6.03335 10.5412 4.98102 12.7555 4.98102L15.5796 4.97972V0.209915C15.0909 0.145158 13.4146 0 11.4644 0C7.39277 0 4.60522 2.48522 4.60522 7.04946V10.9825H0V16.3156H4.60507V30L10.1124 29.9999Z" />
    </symbol>

    <symbol id="twitter" width="29" height="24" viewBox="0 0 29 24" >
        <path d="M25.7625 5.8125C25.7625 6.075 25.7625 6.3375 25.7625 6.5625C25.7625 14.325 19.8375 23.2875 9.0375 23.2875C5.7 23.2875 2.625 22.3125 0 20.6625C0.45 20.7 0.9375 20.7375 1.3875 20.7375C4.125 20.7375 6.675 19.8 8.7 18.225C6.1125 18.1875 3.9375 16.4625 3.225 14.1375C3.6 14.2125 3.9375 14.25 4.35 14.25C4.875 14.25 5.4 14.175 5.8875 14.025C3.1875 13.5 1.1625 11.1375 1.1625 8.2875C1.1625 8.25 1.1625 8.25 1.1625 8.2125C1.95 8.6625 2.85 8.925 3.825 8.9625C2.25 7.9125 1.2 6.1125 1.2 4.05C1.2 2.9625 1.5 1.95 1.9875 1.0875C4.875 4.65 9.225 6.975 14.1 7.2375C13.9875 6.825 13.95 6.3375 13.95 5.8875C13.95 2.625 16.575 0 19.8375 0C21.525 0 23.0625 0.7125 24.1125 1.8375C25.4625 1.575 26.7 1.0875 27.8625 0.4125C27.4125 1.8 26.475 2.925 25.275 3.675C26.475 3.525 27.6 3.225 28.65 2.7375C27.9 3.9375 26.925 4.9875 25.7625 5.8125Z" />
    </symbol>

    <symbol id="insta" width="30" height="30" viewBox="0 0 30 30" >
        <path d="M10.0008 15C10.0008 12.2387 12.2387 9.9996 15 9.9996C17.7613 9.9996 20.0004 12.2387 20.0004 15C20.0004 17.7613 17.7613 20.0004 15 20.0004C12.2387 20.0004 10.0008 17.7613 10.0008 15ZM7.29768 15C7.29768 19.254 10.746 22.7023 15 22.7023C19.254 22.7023 22.7023 19.254 22.7023 15C22.7023 10.746 19.254 7.29768 15 7.29768C10.746 7.29768 7.29768 10.746 7.29768 15ZM21.2072 6.99228C21.2071 7.34829 21.3125 7.69634 21.5102 7.99243C21.7079 8.28852 21.9889 8.51934 22.3177 8.65571C22.6466 8.79208 23.0085 8.82787 23.3577 8.75855C23.7069 8.68924 24.0277 8.51793 24.2795 8.2663C24.5314 8.01467 24.7029 7.69401 24.7725 7.34487C24.8421 6.99573 24.8066 6.6338 24.6705 6.30483C24.5344 5.97587 24.3038 5.69466 24.0079 5.49675C23.7119 5.29885 23.364 5.19314 23.008 5.193H23.0072C22.53 5.19322 22.0724 5.38284 21.7349 5.7202C21.3974 6.05756 21.2077 6.51508 21.2072 6.99228ZM8.94 27.2096C7.47756 27.143 6.68268 26.8994 6.15444 26.6936C5.45412 26.421 4.95444 26.0963 4.42908 25.5716C3.90372 25.047 3.57852 24.5478 3.30708 23.8475C3.10116 23.3195 2.85756 22.5244 2.79108 21.0619C2.71836 19.4808 2.70384 19.0058 2.70384 15.0001C2.70384 10.9944 2.71956 10.5208 2.79108 8.93832C2.85768 7.47588 3.10308 6.68232 3.30708 6.15276C3.57972 5.45244 3.90444 4.95276 4.42908 4.4274C4.95372 3.90204 5.45292 3.57684 6.15444 3.3054C6.68244 3.09948 7.47756 2.85588 8.94 2.7894C10.5211 2.71668 10.9961 2.70216 15 2.70216C19.0039 2.70216 19.4794 2.71788 21.0618 2.7894C22.5242 2.856 23.3178 3.1014 23.8474 3.3054C24.5477 3.57684 25.0474 3.90276 25.5727 4.4274C26.0981 4.95204 26.4221 5.45244 26.6947 6.15276C26.9006 6.68076 27.1442 7.47588 27.2107 8.93832C27.2834 10.5208 27.298 10.9944 27.298 15.0001C27.298 19.0058 27.2834 19.4795 27.2107 21.0619C27.1441 22.5244 26.8993 23.3192 26.6947 23.8475C26.4221 24.5478 26.0974 25.0475 25.5727 25.5716C25.0481 26.0958 24.5477 26.421 23.8474 26.6936C23.3194 26.8996 22.5242 27.1432 21.0618 27.2096C19.4807 27.2824 19.0057 27.2969 15 27.2969C10.9943 27.2969 10.5206 27.2824 8.94 27.2096ZM8.8158 0.09084C7.21896 0.16356 6.1278 0.41676 5.17488 0.78756C4.188 1.17048 3.35256 1.6842 2.51772 2.51772C1.68288 3.35124 1.17048 4.188 0.78756 5.17488C0.41676 6.1284 0.16356 7.21896 0.09084 8.8158C0.01692 10.4152 0 10.9265 0 15C0 19.0735 0.01692 19.5848 0.09084 21.1842C0.16356 22.7812 0.41676 23.8716 0.78756 24.8251C1.17048 25.8114 1.683 26.6491 2.51772 27.4823C3.35244 28.3154 4.188 28.8284 5.17488 29.2124C6.1296 29.5832 7.21896 29.8364 8.8158 29.9092C10.416 29.9819 10.9265 30 15 30C19.0735 30 19.5848 29.9831 21.1842 29.9092C22.7812 29.8364 23.8716 29.5832 24.8251 29.2124C25.8114 28.8284 26.6474 28.3158 27.4823 27.4823C28.3171 26.6488 28.8284 25.8114 29.2124 24.8251C29.5832 23.8716 29.8376 22.781 29.9092 21.1842C29.9819 19.5836 29.9988 19.0735 29.9988 15C29.9988 10.9265 29.9819 10.4152 29.9092 8.8158C29.8364 7.21884 29.5832 6.1278 29.2124 5.17488C28.8284 4.1886 28.3158 3.35256 27.4823 2.51772C26.6488 1.68288 25.8114 1.17048 24.8263 0.78756C23.8716 0.41676 22.781 0.16236 21.1854 0.09084C19.586 0.01812 19.0747 0 15.0012 0C10.9277 0 10.416 0.01692 8.8158 0.09084Z" />
    </symbol>

    <symbol id="instagram" width="14" height="14" viewBox="0 0 14 14" fill="none">
        <path d="M7.00058 0.835449C5.26242 0.835449 5.04429 0.843049 4.36161 0.874116C3.68027 0.905317 3.2152 1.01318 2.80827 1.17145C2.38733 1.33492 2.03026 1.55359 1.67452 1.90946C1.31852 2.2652 1.09985 2.62227 0.935846 3.04307C0.777177 3.45014 0.669176 3.91535 0.638509 4.59642C0.607976 5.2791 0.599976 5.49736 0.599976 7.23552C0.599976 8.97367 0.607709 9.19114 0.638643 9.87381C0.669976 10.5551 0.777844 11.0202 0.935979 11.4272C1.09958 11.8481 1.31825 12.2052 1.67412 12.5609C2.02972 12.9169 2.38679 13.1361 2.80747 13.2996C3.21467 13.4578 3.67987 13.5657 4.36108 13.5969C5.04376 13.628 5.26176 13.6356 6.99978 13.6356C8.73806 13.6356 8.95553 13.628 9.6382 13.5969C10.3195 13.5657 10.7851 13.4578 11.1924 13.2996C11.6132 13.1361 11.9697 12.9169 12.3253 12.5609C12.6813 12.2052 12.9 11.8481 13.064 11.4273C13.2213 11.0202 13.3293 10.555 13.3613 9.87394C13.392 9.19127 13.4 8.97367 13.4 7.23552C13.4 5.49736 13.392 5.27923 13.3613 4.59655C13.3293 3.91521 13.2213 3.45014 13.064 3.04321C12.9 2.62227 12.6813 2.2652 12.3253 1.90946C11.9693 1.55346 11.6133 1.33479 11.192 1.17145C10.7839 1.01318 10.3186 0.905317 9.63727 0.874116C8.9546 0.843049 8.73726 0.835449 6.99858 0.835449H7.00058ZM6.42641 1.98878C6.59681 1.98851 6.78695 1.98878 7.00055 1.98878C8.70937 1.98878 8.9119 1.99491 9.58671 2.02558C10.2107 2.05411 10.5494 2.15838 10.775 2.24598C11.0737 2.36198 11.2866 2.50065 11.5105 2.72465C11.7345 2.94865 11.8731 3.16199 11.9894 3.46066C12.077 3.68599 12.1814 4.02466 12.2098 4.64867C12.2405 5.32334 12.2471 5.52601 12.2471 7.23403C12.2471 8.94205 12.2405 9.14472 12.2098 9.81939C12.1813 10.4434 12.077 10.7821 11.9894 11.0074C11.8734 11.3061 11.7345 11.5187 11.5105 11.7426C11.2865 11.9666 11.0738 12.1053 10.775 12.2213C10.5497 12.3093 10.2107 12.4133 9.58671 12.4418C8.91203 12.4725 8.70937 12.4792 7.00055 12.4792C5.2916 12.4792 5.08906 12.4725 4.41439 12.4418C3.79038 12.413 3.45171 12.3088 3.22598 12.2211C2.92731 12.1051 2.71397 11.9665 2.48997 11.7425C2.26597 11.5185 2.1273 11.3057 2.01103 11.0069C1.92343 10.7815 1.81903 10.4429 1.79063 9.81886C1.75996 9.14419 1.75383 8.94152 1.75383 7.23243C1.75383 5.52335 1.75996 5.32174 1.79063 4.64707C1.81916 4.02306 1.92343 3.68439 2.01103 3.45879C2.12703 3.16012 2.26597 2.94679 2.48997 2.72278C2.71397 2.49878 2.92731 2.36011 3.22598 2.24385C3.45158 2.15584 3.79038 2.05184 4.41439 2.02318C5.00479 1.99651 5.2336 1.98851 6.42641 1.98718V1.98878ZM10.4169 3.05146C9.99285 3.05146 9.64885 3.39506 9.64885 3.8192C9.64885 4.2432 9.99285 4.58721 10.4169 4.58721C10.8409 4.58721 11.1849 4.2432 11.1849 3.8192C11.1849 3.39519 10.8409 3.05146 10.4169 3.05146ZM7.00059 3.9488C5.1855 3.9488 3.71389 5.42041 3.71389 7.2355C3.71389 9.05058 5.1855 10.5215 7.00059 10.5215C8.81567 10.5215 10.2868 9.05058 10.2868 7.2355C10.2868 5.42041 8.81567 3.9488 7.00059 3.9488ZM7.00056 5.10214C8.17871 5.10214 9.13392 6.05722 9.13392 7.2355C9.13392 8.41364 8.17871 9.36885 7.00056 9.36885C5.82228 9.36885 4.86721 8.41364 4.86721 7.2355C4.86721 6.05722 5.82228 5.10214 7.00056 5.10214Z" fill="white"/>
    </symbol>

    <symbol id="pinterest" width="27" height="30" viewBox="0 0 27 30" >
        <path d="M10.8726 20.4281C11.5417 21.6015 13.5028 22.5951 15.585 22.5951C21.7856 22.5951 26.25 17.3679 26.25 10.8774C26.25 4.65645 20.707 0 13.5778 0C4.70666 0 0 5.45455 0 11.4006C0 14.1649 1.60349 17.6004 4.17024 18.6945C4.56246 18.8636 4.77011 18.7896 4.85663 18.4461C4.92584 18.1818 5.27192 16.908 5.42765 16.3108C5.48533 16.1205 5.43342 15.9144 5.28345 15.7717C4.43556 14.8256 3.75494 13.092 3.75494 11.4746C3.75494 7.3203 7.18688 3.2981 13.0356 3.2981C18.0883 3.2981 21.6241 6.4482 21.6241 10.9619C21.6241 16.0571 18.8151 19.5877 15.1582 19.5877C13.1394 19.5877 11.6282 18.0603 12.1127 16.1839C12.6953 13.9429 13.8143 11.5275 13.8143 9.91015C13.8143 8.46195 12.9664 7.25687 11.2129 7.25687C9.14799 7.25687 7.49258 9.21247 7.49258 11.8288C7.49258 13.4989 8.10976 14.6247 8.10976 14.6247C8.10976 14.6247 6.07367 22.5159 5.69875 23.9852C5.27192 25.6765 5.46803 28.1025 5.6526 29.5825C6.07367 29.7304 6.48896 29.8784 6.92156 30C7.75791 28.7685 9.10761 26.6015 9.58636 24.8996C9.84015 24.0275 10.8726 20.4281 10.8726 20.4281Z"/>
    </symbol>

    <symbol id='telegram' width="24" height="24" viewBox="0 0 24 24">
        <path d="M16.5915 7.52981C16.596 7.52981 16.602 7.52981 16.608 7.52981C16.7647 7.52981 16.9102 7.57856 17.0295 7.66255L17.0272 7.66106C17.1142 7.7368 17.1727 7.84331 17.187 7.9633V7.96556C17.202 8.05705 17.2102 8.16206 17.2102 8.26931C17.2102 8.31806 17.2087 8.36606 17.205 8.41405V8.4073C17.0362 10.1841 16.3042 14.4928 15.9322 16.4818C15.7747 17.3241 15.465 17.6061 15.165 17.6331C14.5132 17.6938 14.0182 17.2026 13.3867 16.7886C12.3982 16.1398 11.8395 15.7363 10.8802 15.1041C9.77096 14.3743 10.4902 13.9716 11.1217 13.3161C11.2875 13.1436 14.1607 10.5298 14.217 10.2928C14.22 10.2786 14.2215 10.2628 14.2215 10.2463C14.2215 10.1878 14.1997 10.1346 14.1645 10.0941C14.1255 10.0686 14.0767 10.0543 14.0257 10.0543C13.992 10.0543 13.9597 10.0611 13.9297 10.0723L13.9312 10.0716C13.8322 10.0941 12.2532 11.1376 9.19421 13.2021C8.86046 13.4653 8.43896 13.6318 7.97996 13.6513H7.97546C7.32521 13.5726 6.73496 13.4278 6.17471 13.2216L6.23021 13.2396C5.52671 13.0101 4.96796 12.8893 5.01596 12.5008C5.04146 12.2988 5.31996 12.0921 5.85146 11.8806C9.12546 10.4541 11.3087 9.51381 12.4012 9.0598C13.6065 8.42005 15.0037 7.89355 16.473 7.5523L16.5907 7.52905L16.5915 7.52981ZM11.9475 0.768555C5.72096 0.783555 0.678711 5.8348 0.678711 12.0636C0.678711 18.3013 5.73521 23.3586 11.9737 23.3586C18.2122 23.3586 23.2687 18.3021 23.2687 12.0636C23.2687 5.8348 18.2265 0.783555 12.0015 0.768555H12C11.9825 0.768555 11.965 0.768555 11.9475 0.768555Z" fill="#FFD479"/>
    </symbol>

    <symbol id="dzen" width="24" height="24" viewBox="0 0 24 24">
        <path d="M8.96198 17.9968H9.03374C12.6076 17.9968 14.6821 17.637 16.1515 16.2104C17.6498 14.6971 17.9958 12.6087 17.9958 9.04873V8.94806C17.9958 5.38918 17.6498 3.31469 16.1515 1.7864C14.6831 0.35985 12.5937 0 9.03481 0H8.96305C5.38919 0 3.31362 0.35985 1.84423 1.7864C0.345928 3.2997 0 5.38918 0 8.94806V9.04873C0 12.6076 0.345928 14.6821 1.84423 16.2104C3.2997 17.637 5.38919 17.9968 8.96198 17.9968Z" fill="#FFD479"/>
        <path d="M15.8534 8.86209C15.8534 8.79356 15.7977 8.73681 15.7291 8.73359C13.2694 8.64042 11.7724 8.32668 10.7251 7.27939C9.67568 6.22997 9.363 4.73186 9.26984 2.26679C9.2677 2.19826 9.21093 2.14258 9.14133 2.14258H8.85435C8.78582 2.14258 8.72906 2.19826 8.72585 2.26679C8.63268 4.73079 8.32 6.22997 7.27058 7.27939C6.22223 8.32775 4.72626 8.64042 2.26655 8.73359C2.19801 8.73574 2.14233 8.79249 2.14233 8.86209V9.14908C2.14233 9.21762 2.19801 9.27437 2.26655 9.27758C4.72626 9.37074 6.22329 9.6845 7.27058 10.7318C8.31785 11.7791 8.63054 13.2729 8.72478 15.7283C8.72691 15.7968 8.78367 15.8525 8.85328 15.8525H9.14133C9.20986 15.8525 9.26662 15.7968 9.26984 15.7283C9.36407 13.2729 9.67676 11.7791 10.7241 10.7318C11.7724 9.68343 13.2683 9.37074 15.7281 9.27758C15.7966 9.27544 15.8523 9.21869 15.8523 9.14908V8.86209H15.8534Z" fill="#1F2A32"/>
    </symbol>

    <symbol id="youtube" width="24" height="24" viewBox="0 0 24 24">
        <path d="M4.652 0h1.44l.988 3.702.916-3.702h1.454l-1.665 5.505v3.757h-1.431v-3.757l-1.702-5.505zm6.594 2.373c-1.119 0-1.861.74-1.861 1.835v3.349c0 1.204.629 1.831 1.861 1.831 1.022 0 1.826-.683 1.826-1.831v-3.349c0-1.069-.797-1.835-1.826-1.835zm.531 5.127c0 .372-.19.646-.532.646-.351 0-.554-.287-.554-.646v-3.179c0-.374.172-.651.529-.651.39 0 .557.269.557.651v3.179zm4.729-5.07v5.186c-.155.194-.5.512-.747.512-.271 0-.338-.186-.338-.46v-5.238h-1.27v5.71c0 .675.206 1.22.887 1.22.384 0 .918-.2 1.468-.853v.754h1.27v-6.831h-1.27zm2.203 13.858c-.448 0-.541.315-.541.763v.659h1.069v-.66c.001-.44-.092-.762-.528-.762zm-4.703.04c-.084.043-.167.109-.25.198v4.055c.099.106.194.182.287.229.197.1.485.107.619-.067.07-.092.105-.241.105-.449v-3.359c0-.22-.043-.386-.129-.5-.147-.193-.42-.214-.632-.107zm4.827-5.195c-2.604-.177-11.066-.177-13.666 0-2.814.192-3.146 1.892-3.167 6.367.021 4.467.35 6.175 3.167 6.367 2.6.177 11.062.177 13.666 0 2.814-.192 3.146-1.893 3.167-6.367-.021-4.467-.35-6.175-3.167-6.367zm-12.324 10.686h-1.363v-7.54h-1.41v-1.28h4.182v1.28h-1.41v7.54zm4.846 0h-1.21v-.718c-.223.265-.455.467-.696.605-.652.374-1.547.365-1.547-.955v-5.438h1.209v4.988c0 .262.063.438.322.438.236 0 .564-.303.711-.487v-4.939h1.21v6.506zm4.657-1.348c0 .805-.301 1.431-1.106 1.431-.443 0-.812-.162-1.149-.583v.5h-1.221v-8.82h1.221v2.84c.273-.333.644-.608 1.076-.608.886 0 1.18.749 1.18 1.631v3.609zm4.471-1.752h-2.314v1.228c0 .488.042.91.528.91.511 0 .541-.344.541-.91v-.452h1.245v.489c0 1.253-.538 2.013-1.813 2.013-1.155 0-1.746-.842-1.746-2.013v-2.921c0-1.129.746-1.914 1.837-1.914 1.161 0 1.721.738 1.721 1.914v1.656z"/>
    </symbol>
</svg>